<?xml version="1.0" encoding="UTF-8" standalone="no"?>
<svg
   width="19"
   height="21"
   viewBox="0 0 19 21"
   fill="none"
   version="1.1"
   id="svg4"
   sodipodi:docname="github.svg"
   inkscape:version="1.1 (c4e8f9ed74, 2021-05-24)"
   xmlns:inkscape="http://www.inkscape.org/namespaces/inkscape"
   xmlns:sodipodi="http://sodipodi.sourceforge.net/DTD/sodipodi-0.dtd"
   xmlns="http://www.w3.org/2000/svg"
   xmlns:svg="http://www.w3.org/2000/svg">
  <defs
     id="defs8" />
  <sodipodi:namedview
     id="namedview6"
     pagecolor="#ffffff"
     bordercolor="#666666"
     borderopacity="1.0"
     inkscape:pageshadow="2"
     inkscape:pageopacity="0.0"
     inkscape:pagecheckerboard="0"
     showgrid="false"
     inkscape:zoom="36.904762"
     inkscape:cx="5.9341935"
     inkscape:cy="9.2670968"
     inkscape:window-width="2560"
     inkscape:window-height="1363"
     inkscape:window-x="1080"
     inkscape:window-y="48"
     inkscape:window-maximized="1"
     inkscape:current-layer="svg4" />
  <path
     d="m 14.612358,9.0566452 c 0,-0.648033 -0.208072,-1.2568011 -0.605291,-1.7870131 0.151282,-0.510575 0.189145,-1.1586112 0.151282,-1.9048372 -0.01882,-0.314202 -0.264809,-0.5498521 -0.567428,-0.5498521 -0.170264,0 -1.607787,0.01964 -2.44008,0.7855031 -0.71877,-0.137465 -1.4753654,-0.137465 -2.2130588,0 -0.813351,-0.765866 -2.2509028,-0.7855031 -2.4400561,-0.7855031 -0.3026449,0 -0.5485398,0.23565 -0.5674549,0.549852 -0.056743,0.746226 0,1.3942622 0.1513201,1.9048372 C 5.6843764,7.819485 5.476308,8.428248 5.476308,9.056645 c 0,1.374625 1.0214181,2.611811 2.5724612,3.200944 -0.056743,0.117795 -0.094577,0.25526 -0.1324054,0.392725 -1.6456192,-0.176739 -2.4211405,-1.728078 -2.458969,-1.787042 -0.1324049,-0.294536 -0.472883,-0.412331 -0.7566081,-0.25526 -0.2837279,0.137465 -0.3972198,0.490962 -0.2458979,0.785515 0.037827,0.09817 1.0781628,2.19937 3.3668984,2.435026 v 1.767371 c 0,0.333874 0.245901,0.589133 0.567454,0.589133 h 3.3101458 c 0.321548,0 0.567484,-0.255259 0.567484,-0.589133 V 13.25907 c 0,-0.353497 -0.07566,-0.687323 -0.208074,-0.981857 1.532124,-0.608757 2.553561,-1.826272 2.553561,-3.2205678 z"
     fill="#ffffff"
     id="path2"
     style="fill:#ffffff;stroke-width:0.568506" />
</svg>
